<?xml version="1.0" encoding="utf-8"?>
<!-- Generator: Adobe Illustrator 16.0.3, SVG Export Plug-In . SVG Version: 6.00 Build 0)  -->
<!DOCTYPE svg PUBLIC "-//W3C//DTD SVG 1.1//EN" "http://www.w3.org/Graphics/SVG/1.1/DTD/svg11.dtd">
<svg version="1.1" xmlns="http://www.w3.org/2000/svg" xmlns:xlink="http://www.w3.org/1999/xlink" x="0px" y="0px" width="24px"
	 height="24px" viewBox="0 0 24 24" enable-background="new 0 0 24 24" xml:space="preserve">
<g id="Outline_Icons_1_">
	<g id="Outline_Icons">
		<g>
			<path d="M23.764,19.018l-0.799-0.461c0.048-0.383,0.048-0.73,0-1.113l0.799-0.461c0.115-0.066,0.199-0.176,0.233-0.304
				c0.034-0.127,0.017-0.265-0.05-0.379l-1.5-2.598c-0.066-0.115-0.176-0.199-0.304-0.232c-0.128-0.034-0.265-0.017-0.379,0.049
				l-0.813,0.47c-0.297-0.22-0.615-0.404-0.951-0.551V12.5c0-0.276-0.224-0.5-0.5-0.5h-3c-0.276,0-0.5,0.224-0.5,0.5v0.937
				c-0.335,0.147-0.653,0.332-0.951,0.551l-0.813-0.47c-0.115-0.066-0.252-0.083-0.379-0.049c-0.128,0.034-0.237,0.118-0.304,0.232
				l-1.5,2.598c-0.066,0.115-0.084,0.251-0.05,0.379s0.118,0.237,0.233,0.304l0.799,0.461c-0.048,0.383-0.048,0.731,0,1.114
				l-0.799,0.461c-0.239,0.139-0.321,0.444-0.183,0.683l1.5,2.598c0.066,0.115,0.176,0.199,0.304,0.233
				c0.127,0.033,0.264,0.016,0.379-0.05l0.814-0.47c0.297,0.219,0.615,0.403,0.95,0.55V23.5c0,0.276,0.224,0.5,0.5,0.5h3
				c0.276,0,0.5-0.224,0.5-0.5v-0.937c0.335-0.147,0.653-0.331,0.95-0.551l0.813,0.47c0.24,0.137,0.544,0.056,0.683-0.183l1.5-2.598
				c0.066-0.115,0.084-0.251,0.05-0.379S23.878,19.084,23.764,19.018z M21.926,18.728c-0.039,0.208,0.058,0.418,0.242,0.524
				l0.663,0.383l-1,1.731l-0.675-0.389c-0.184-0.106-0.413-0.085-0.574,0.052c-0.374,0.318-0.794,0.562-1.249,0.724
				C19.133,21.824,19,22.013,19,22.225V23h-2v-0.775c0-0.211-0.133-0.4-0.333-0.471c-0.455-0.162-0.875-0.405-1.249-0.724
				c-0.162-0.137-0.392-0.159-0.574-0.052l-0.675,0.39l-1-1.732l0.663-0.383c0.184-0.106,0.28-0.316,0.242-0.524
				c-0.099-0.529-0.099-0.924,0-1.454c0.039-0.208-0.058-0.419-0.242-0.524l-0.663-0.383l1-1.731l0.674,0.39
				c0.182,0.105,0.413,0.084,0.575-0.053c0.374-0.319,0.794-0.562,1.249-0.725C16.867,14.176,17,13.987,17,13.775V13h2v0.775
				c0,0.211,0.133,0.4,0.333,0.471c0.455,0.163,0.875,0.406,1.249,0.725c0.162,0.137,0.392,0.158,0.575,0.053l0.674-0.39l1,1.731
				l-0.663,0.383c-0.184,0.106-0.28,0.316-0.242,0.524C22.024,17.803,22.024,18.197,21.926,18.728z"/>
			<path d="M18,15.5c-1.378,0-2.5,1.122-2.5,2.5s1.122,2.5,2.5,2.5s2.5-1.122,2.5-2.5S19.378,15.5,18,15.5z M18,19.5
				c-0.827,0-1.5-0.673-1.5-1.5s0.673-1.5,1.5-1.5s1.5,0.673,1.5,1.5S18.827,19.5,18,19.5z"/>
			<path d="M6.5,8c2.206,0,4-1.794,4-4s-1.794-4-4-4s-4,1.794-4,4S4.294,8,6.5,8z M6.5,1c1.654,0,3,1.346,3,3s-1.346,3-3,3
				s-3-1.346-3-3S4.846,1,6.5,1z"/>
			<path d="M12,9H1C0.724,9,0.5,9.224,0.5,9.5c0,3.554,1.271,6.37,3.5,7.783V23.5C4,23.776,4.224,24,4.5,24h4
				C8.776,24,9,23.776,9,23.5v-6.217c2.229-1.414,3.5-4.23,3.5-7.783C12.5,9.224,12.276,9,12,9z M6.54,10l0.442,5.311L6.5,15.793
				l-0.482-0.482L6.46,10H6.54z M8.253,16.565C8.097,16.654,8,16.82,8,17v6H5v-6c0-0.18-0.097-0.346-0.253-0.435
				C2.789,15.452,1.623,13.075,1.509,10h3.948l-0.455,5.458c-0.012,0.146,0.041,0.292,0.145,0.395l1,1C6.244,16.951,6.372,17,6.5,17
				s0.256-0.049,0.354-0.146l1-1c0.104-0.104,0.157-0.249,0.145-0.395L7.543,10h3.948C11.377,13.074,10.211,15.451,8.253,16.565z"/>
		</g>
	</g>
	<g id="New_icons_1_">
	</g>
</g>
<g id="Invisible_Shape">
	<rect fill="none" width="24" height="24"/>
</g>
</svg>
